    <svg
          version="1.0"
          fill="#3941f0"
          xmlns="http://www.w3.org/2000/svg"
          width="80"
          height="50"
          viewBox="0 0 469.000000 187.000000"
          preserveAspectRatio="xMidYMid meet"
        >
          <g
            transform="translate(0.000000,187.000000) scale(0.100000,-0.100000)"
            fill="#3941f0"
            stroke="none"
          >
            <path
              fill="black"
              d="M1682 1829 c-124 -62 -125 -251 -2 -317 116 -62 250 22 250 157 0 58
-15 93 -57 133 -55 52 -121 61 -191 27z"
            ></path>
            <path
              d="M83 1278 c3 -333 8 -488 17 -523 35 -140 124 -262 233 -316 96 -49
167 -63 317 -63 150 0 221 14 317 63 75 37 156 123 194 206 53 112 58 173 59
663 l0 442 -165 0 -165 0 0 -414 c0 -238 -4 -436 -10 -467 -15 -80 -47 -137
-93 -167 -37 -25 -49 -27 -137 -27 -86 0 -100 3 -134 25 -47 32 -83 105 -96
195 -5 39 -10 247 -10 463 l0 392 -166 0 -166 0 5 -472z"
            ></path>
            <path
              d="M2633 1335 c-181 -39 -315 -166 -351 -330 -43 -195 -9 -354 101 -472
129 -137 339 -192 545 -142 71 18 163 62 205 98 43 38 93 138 100 199 l5 42
-146 0 -147 0 -21 -48 c-26 -61 -71 -84 -158 -85 -112 -1 -178 58 -188 169
l-3 39 333 3 334 2 -7 68 c-27 278 -151 429 -380 463 -81 12 -148 10 -222 -6z
m227 -214 c40 -18 80 -73 80 -107 l0 -24 -181 0 -181 0 6 28 c15 61 68 108
136 121 53 10 92 5 140 -18z"
            ></path>
            <path d="M1600 655 l0 -655 160 0 160 0 0 655 0 655 -160 0 -160 0 0 -655z"></path>
            <path
              d="M3460 1272 c0 -4 95 -102 210 -217 116 -115 210 -214 210 -220 0 -6
-94 -105 -210 -220 -115 -115 -210 -213 -210 -217 0 -26 48 15 237 204 l213
213 213 -213 c189 -189 237 -230 237 -204 0 4 -94 102 -210 217 -115 115 -210
214 -210 220 0 6 95 105 210 220 116 115 210 213 210 217 0 26 -48 -15 -237
-204 l-213 -213 -213 213 c-189 189 -237 230 -237 204z"
              fill="black"
            ></path>
          </g>
        </svg>